<?xml version="1.0" standalone="no"?>
<!DOCTYPE svg PUBLIC "-//W3C//DTD SVG 20010904//EN"
 "http://www.w3.org/TR/2001/REC-SVG-20010904/DTD/svg10.dtd">
<svg version="1.0" xmlns="http://www.w3.org/2000/svg"
 width="634.000000pt" height="634.000000pt" viewBox="0 0 634.000000 634.000000"
 preserveAspectRatio="xMidYMid meet">
<metadata>
Created by potrace 1.14, written by Peter Selinger 2001-2017
</metadata>
<g transform="translate(0.000000,634.000000) scale(0.100000,-0.100000)"
fill="#000000" stroke="none">
<path d="M4450 4679 c-1501 -15 -2057 -27 -2150 -44 -171 -31 -341 -106 -533
-234 -85 -58 -134 -101 -249 -223 -284 -301 -426 -442 -573 -568 -323 -275
-416 -346 -585 -445 -125 -73 -172 -106 -193 -136 l-28 -39 3058 -2 3058 -3 3
-62 3 -63 -3074 0 -3075 0 -6 -37 c-3 -21 -8 -141 -12 -268 l-7 -230 34 -44
c19 -24 59 -58 89 -75 55 -31 55 -31 255 -38 110 -3 363 -7 561 -7 l362 -1 7
-72 c15 -152 76 -279 180 -377 279 -260 736 -177 896 164 36 75 59 165 59 226
l0 47 833 -5 c457 -2 838 -6 845 -8 7 -3 12 -21 12 -43 0 -52 25 -145 59 -217
89 -191 290 -316 505 -316 165 0 284 49 402 166 99 98 150 206 169 358 l6 47
313 0 313 0 61 31 c71 35 105 71 143 154 33 70 56 221 66 418 l6 127 39 0 38
0 0 65 0 65 -40 0 c-33 0 -40 4 -44 23 -2 12 -10 181 -16 376 -12 388 -30 632
-60 807 -24 139 -55 264 -80 320 -24 55 -84 114 -146 145 -49 24 -51 24 -384
25 -184 1 -688 -3 -1120 -7z m1107 -496 c244 -124 250 -128 341 -217 50 -49
92 -97 92 -107 0 -11 -34 -38 -95 -76 l-95 -58 0 -111 c0 -93 -3 -113 -17
-126 -10 -8 -123 -79 -251 -158 -207 -127 -236 -142 -256 -132 -46 21 -471
285 -483 300 -9 11 -13 52 -13 123 l0 107 -85 52 c-46 29 -90 59 -96 66 -16
19 2 43 97 133 72 68 100 85 329 203 138 70 258 128 267 128 9 0 129 -57 265
-127z m-3452 93 c65 -27 65 -29 65 -483 0 -387 -1 -410 -20 -440 -31 -52 -54
-54 -528 -51 -462 3 -452 2 -486 59 -25 42 -20 71 34 176 148 291 474 593 769
713 60 25 81 31 124 39 4 0 23 -5 42 -13z m47 -1755 c114 -56 188 -141 229
-263 17 -52 20 -80 17 -158 -3 -83 -8 -104 -38 -165 -89 -185 -293 -285 -492
-241 -338 75 -461 491 -218 737 98 99 179 130 330 126 96 -2 111 -5 172 -36z
m2821 2 c177 -84 282 -281 250 -468 -41 -238 -268 -405 -498 -367 -124 20
-220 78 -292 176 -61 83 -87 172 -81 286 4 77 9 98 40 162 56 111 140 188 252
229 40 15 74 18 156 16 94 -2 112 -6 173 -34z"/>
<path d="M5205 4223 c-50 -25 -154 -79 -233 -120 l-143 -75 227 -139 c124 -77
229 -141 233 -142 9 -2 461 275 461 283 0 3 -103 57 -228 121 l-227 117 -90
-45z"/>
<path d="M4716 3931 l-69 -70 34 -20 c19 -11 124 -76 234 -145 l200 -124 70
69 c38 37 67 70 65 73 -6 5 -460 286 -463 286 -1 0 -34 -31 -71 -69z"/>
<path d="M5570 3860 c-124 -77 -229 -141 -235 -144 -5 -2 22 -36 60 -75 l70
-71 238 147 238 147 -68 68 c-37 37 -70 68 -73 68 -3 0 -106 -63 -230 -140z"/>
<path d="M4832 3604 l3 -86 200 -124 c110 -69 208 -129 218 -135 16 -9 17 3
17 192 l0 202 -70 -67 c-49 -47 -75 -66 -87 -62 -9 4 -74 42 -145 86 -70 44
-131 80 -134 80 -2 0 -3 -39 -2 -86z"/>
<path d="M5607 3605 c-75 -47 -140 -85 -144 -85 -4 0 -38 30 -75 67 l-68 67 0
-197 c0 -108 3 -197 6 -197 4 0 103 59 220 131 l214 132 0 83 c0 46 -3 84 -7
84 -5 0 -70 -39 -146 -85z"/>
</g>
</svg>
